<?xml version="1.0" encoding="UTF-8"?><svg id="a" xmlns="http://www.w3.org/2000/svg" viewBox="0 0 402.88 139.73"><path d="M398.47,69.85c11.14-24.95-.06-54.2-25.01-65.34-24.95-11.14-54.2.06-65.34,25.01-.27.61-.53,1.22-.77,1.83H95.51C85.5,5.93,56.78-6.56,31.36,3.45,5.93,13.47-6.56,42.19,3.45,67.61c.29.74.6,1.48.93,2.21-11.1,24.97.14,54.2,25.11,65.3,24.97,11.1,54.2-.14,65.3-25.11.25-.56.49-1.12.71-1.69h211.84c9.98,25.43,38.69,37.96,64.12,27.98,25.43-9.98,37.96-38.69,27.98-64.12-.31-.78-.63-1.56-.98-2.32ZM325.81,116.48c-4.32-4.29-7.54-9.56-9.41-15.35-.73-2.27-2.84-3.8-5.23-3.81H101.12c-11.85,0-14.6,0-14.91,4.53-1.89,5.51-5.02,10.52-9.16,14.63-14.98,15.02-39.31,15.06-54.34.07-8.98-8.96-12.96-21.78-10.64-34.25.89,1.05,1.8,2.09,2.79,3.08,4.49,4.5,9.81,8.09,15.66,10.57l4.29-10.12c-19.55-8.32-28.66-30.92-20.34-50.47C22.8,15.82,45.4,6.71,64.95,15.03c9.99,4.25,17.72,12.53,21.28,22.79.3,4.51,3.05,4.51,14.91,4.52h210.03c2.38.01,4.49-1.53,5.23-3.79,1.86-5.8,5.09-11.06,9.41-15.35,14.98-15.02,39.31-15.06,54.34-.07,8.98,8.96,12.96,21.78,10.64,34.25-.89-1.05-1.8-2.09-2.79-3.08-4.49-4.5-9.81-8.09-15.66-10.57l-4.29,10.12c19.56,8.32,28.67,30.91,20.35,50.47s-30.91,28.67-50.47,20.35c-4.53-1.92-8.64-4.7-12.12-8.17Z"/></svg>