<?xml version="1.0" encoding="UTF-8"?><svg id="a" xmlns="http://www.w3.org/2000/svg" viewBox="0 0 425.55 188.2"><path d="M395.25,88.29l-5.97-3.95c-2.6-1.73-4.46-4.37-5.21-7.4-4.25-17.1-21.56-27.52-38.66-23.27-11.47,2.85-20.42,11.8-23.27,23.27-.75,3.03-2.61,5.67-5.21,7.4l-5.97,3.95c-10.9,7.3-13.81,22.05-6.51,32.95,4.4,6.57,11.78,10.52,19.69,10.53h1.05c6.38,0,12.66-1.49,18.37-4.34,6.03-2.95,13.08-2.95,19.11,0,5.7,2.84,11.97,4.32,18.34,4.34h1.08c13.12-.02,23.73-10.68,23.71-23.79-.01-7.91-3.96-15.29-10.53-19.69ZM382.07,118.6h-1.05c-4.33,0-8.61-1.02-12.49-2.95-9.71-4.86-21.14-4.86-30.85,0-3.89,1.93-8.17,2.94-12.52,2.95h-1.05c-5.84,0-10.58-4.73-10.58-10.57,0-3.54,1.77-6.84,4.71-8.81l5.93-3.95c5.33-3.54,9.14-8.95,10.69-15.15,2.51-10.03,12.68-16.13,22.71-13.62,6.71,1.68,11.94,6.91,13.62,13.62,1.55,6.21,5.37,11.61,10.69,15.15l5.93,3.95c4.86,3.24,6.18,9.8,2.94,14.66-1.94,2.92-5.2,4.68-8.71,4.71Z"/><path d="M320.14,59.3c0-14.78-8.68-26.35-19.77-26.35s-19.77,11.58-19.77,26.35,8.68,26.35,19.77,26.35,19.77-11.58,19.77-26.35ZM293.78,59.3c0-8.04,3.9-13.18,6.59-13.18s6.59,5.13,6.59,13.18-3.9,13.18-6.59,13.18-6.59-5.13-6.59-13.18Z"/><path d="M333.31,52.71c11.08,0,19.77-11.58,19.77-26.35S344.39,0,333.31,0s-19.77,11.58-19.77,26.35,8.68,26.35,19.77,26.35ZM333.31,13.18c2.69,0,6.59,5.13,6.59,13.18s-3.9,13.18-6.59,13.18-6.59-5.13-6.59-13.18,3.9-13.18,6.59-13.18Z"/><path d="M386.02,59.3c0,14.78,8.68,26.35,19.77,26.35s19.77-11.58,19.77-26.35-8.68-26.35-19.77-26.35-19.77,11.58-19.77,26.35ZM412.38,59.3c0,8.04-3.9,13.18-6.59,13.18s-6.59-5.13-6.59-13.18,3.9-13.18,6.59-13.18,6.59,5.13,6.59,13.18Z"/><path d="M372.84,52.71c11.08,0,19.77-11.58,19.77-26.35S383.93,0,372.84,0s-19.77,11.58-19.77,26.35,8.68,26.35,19.77,26.35ZM372.84,13.18c2.69,0,6.59,5.13,6.59,13.18s-3.9,13.18-6.59,13.18-6.59-5.13-6.59-13.18,3.9-13.18,6.59-13.18Z"/></svg>