<?xml version="1.0" encoding="UTF-8"?><svg id="a" xmlns="http://www.w3.org/2000/svg" viewBox="0 0 32.01 32"><g id="b"><path d="M23.33,32c-1.08,0-2.16-.41-2.99-1.23-2.43-2.43-.24-4.78-1.42-5.97L7.21,13.09c-1.19-1.19-3.53,1.01-5.97-1.42-2.74-2.74-.63-7.42,3.22-7.2-.22-3.86,4.46-5.96,7.2-3.22,2.39,2.39.26,4.8,1.42,5.97l11.71,11.71c1.16,1.16,3.58-.97,5.97,1.42,2.74,2.74.62,7.43-3.22,7.2.13,2.41-1.79,4.46-4.21,4.46h0Z" fill="#d683dd" fill-rule="evenodd"/><path d="M23.33,32c-1.08,0-2.16-.41-2.99-1.23-2.43-2.43-.24-4.78-1.42-5.97L7.21,13.09c-1.19-1.19-3.53,1.01-5.97-1.42-2.74-2.74-.63-7.42,3.22-7.2-.22-3.86,4.46-5.96,7.2-3.22,2.39,2.39.26,4.8,1.42,5.97l11.71,11.71c1.16,1.16,3.58-.97,5.97,1.42,2.74,2.74.62,7.43-3.22,7.2.13,2.41-1.79,4.46-4.21,4.46h0ZM6.14,11.95c.57,0,1.12.13,1.6.6l11.71,11.71c1.61,1.61-.77,3.77,1.42,5.97,1.35,1.35,3.56,1.35,4.91,0,1.35-1.35,1.35-3.56,0-4.91-.35-.35.18-.88.53-.53.57.57.94,1.26,1.12,1.99,3.24.33,5.11-3.61,2.8-5.91-2.15-2.15-4.38.16-5.97-1.42L12.56,7.74c-1.58-1.58.72-3.82-1.42-5.97-2.3-2.3-6.24-.43-5.91,2.8.61.15,2.59,1.04,1.99,1.65-.15.15-.38.15-.53,0-2.18-2.18-5.93-.62-5.93,2.46,0,.93.36,1.8,1.02,2.45,1.54,1.54,2.95.82,4.37.82h0Z" fill-rule="evenodd"/><path d="M4.13,10.84c-1.08,0-2.67-.86-2.12-1.41.49-.49.69.66,2.12.66s1.63-1.15,2.12-.66c.55.55-1.04,1.41-2.12,1.41Z" fill-rule="evenodd"/><path d="M28.74,25.4c-.33,0-.5-.4-.27-.64.88-.88.88-2.3,0-3.17-.35-.35.18-.88.53-.53,1.8,1.8.36,4.35-.27,4.35h0Z" fill-rule="evenodd"/><path d="M18.82,21.72c-.1,0-.19-.04-.27-.11l-8.16-8.16c-.35-.35.18-.88.53-.53l8.16,8.16c.24.24.07.64-.27.64h0Z" fill-rule="evenodd"/></g></svg>